<svg width="88" height="24" viewBox="0 0 88 24" fill="none" xmlns="http://www.w3.org/2000/svg">
<g clip-path="url(#clip0_325:52214)">
<path fill-rule="evenodd" clip-rule="evenodd" d="M0.859375 0H24.7818V24H0.859375V0ZM12.787 8.75874L16.5765 17.6738H18.657L13.7387 6.40378H11.9106L6.98759 17.6738H9.001L12.787 8.75874ZM35.6524 6.43967H37.5871V17.6321H35.936L29.7684 9.67456V17.6321H27.8337V6.43967H29.6538L35.6524 14.1819V6.43967ZM44.8094 8.26667H41.2642V6.43967H50.339V8.26667H46.795V17.6321H44.8094V8.26667ZM55.9845 6.43967H54.0139V17.6321H61.8672V15.8445H55.9845V6.43967ZM65.5155 17.6321V8.20415V6.43967H73.8111V8.20415H67.2672V11.116H72.2828V12.8701H67.2672V15.8769H73.8111V17.6321H65.5155ZM86.966 10.0126C86.966 11.8477 85.8638 12.9523 84.2961 13.3992L87.3168 17.6321H85.0012L82.2526 13.7338H79.7911V17.6321H77.8228V6.43967H82.8106C84.2174 6.43967 85.3184 6.84142 86.0397 7.56505C86.6418 8.17058 86.966 9.00072 86.966 9.97906V10.0126ZM79.7876 8.23889V11.9948L82.6624 11.9925C84.0703 11.9925 84.9665 11.2526 84.9665 10.1192V10.0914C84.9665 8.88957 84.1051 8.23889 82.6509 8.23889H79.7876Z" fill="#4a4a4a"/>
</g>
<defs>
<clipPath id="clip0_325:52214">
<rect width="86.4574" height="24" fill="white" transform="translate(0.859375)"/>
</clipPath>
</defs>
</svg>
